<svg id="visual" viewBox="0 0 960 540" width="960" height="540" xmlns="http://www.w3.org/2000/svg" xmlns:xlink="http://www.w3.org/1999/xlink" version="1.1"><rect x="0" y="0" width="960" height="540" fill="#001220"></rect><defs><linearGradient id="grad1_0" x1="43.8%" y1="100%" x2="100%" y2="0%"><stop offset="14.444444444444446%" stop-color="#fbae3c" stop-opacity="1"></stop><stop offset="85.55555555555554%" stop-color="#fbae3c" stop-opacity="1"></stop></linearGradient></defs><defs><linearGradient id="grad1_1" x1="43.8%" y1="100%" x2="100%" y2="0%"><stop offset="14.444444444444446%" stop-color="#fbae3c" stop-opacity="1"></stop><stop offset="85.55555555555554%" stop-color="#96446e" stop-opacity="1"></stop></linearGradient></defs><defs><linearGradient id="grad1_2" x1="43.8%" y1="100%" x2="100%" y2="0%"><stop offset="14.444444444444446%" stop-color="#001220" stop-opacity="1"></stop><stop offset="85.55555555555554%" stop-color="#96446e" stop-opacity="1"></stop></linearGradient></defs><defs><linearGradient id="grad2_0" x1="0%" y1="100%" x2="56.3%" y2="0%"><stop offset="14.444444444444446%" stop-color="#fbae3c" stop-opacity="1"></stop><stop offset="85.55555555555554%" stop-color="#fbae3c" stop-opacity="1"></stop></linearGradient></defs><defs><linearGradient id="grad2_1" x1="0%" y1="100%" x2="56.3%" y2="0%"><stop offset="14.444444444444446%" stop-color="#96446e" stop-opacity="1"></stop><stop offset="85.55555555555554%" stop-color="#fbae3c" stop-opacity="1"></stop></linearGradient></defs><defs><linearGradient id="grad2_2" x1="0%" y1="100%" x2="56.3%" y2="0%"><stop offset="14.444444444444446%" stop-color="#96446e" stop-opacity="1"></stop><stop offset="85.55555555555554%" stop-color="#001220" stop-opacity="1"></stop></linearGradient></defs><g transform="translate(960, 540)"><path d="M-189 0C-178.4 -29.6 -167.7 -59.2 -153.3 -88.5C-138.9 -117.8 -120.7 -147 -94.5 -163.7C-68.3 -180.4 -34.2 -184.7 0 -189L0 0Z" fill="#3d3056"></path><path d="M-126 0C-118.9 -19.7 -111.8 -39.4 -102.2 -59C-92.6 -78.6 -80.5 -98 -63 -109.1C-45.5 -120.3 -22.8 -123.1 0 -126L0 0Z" fill="#e1685e"></path><path d="M-63 0C-59.5 -9.9 -55.9 -19.7 -51.1 -29.5C-46.3 -39.3 -40.2 -49 -31.5 -54.6C-22.8 -60.1 -11.4 -61.6 0 -63L0 0Z" fill="#fbae3c"></path></g><g transform="translate(0, 0)"><path d="M189 0C173.7 26.9 158.5 53.8 144.6 83.5C130.8 113.2 118.4 145.6 94.5 163.7C70.6 181.7 35.3 185.4 0 189L0 0Z" fill="#3d3056"></path><path d="M126 0C115.8 17.9 105.6 35.9 96.4 55.7C87.2 75.5 78.9 97.1 63 109.1C47.1 121.1 23.5 123.6 0 126L0 0Z" fill="#e1685e"></path><path d="M63 0C57.9 9 52.8 17.9 48.2 27.8C43.6 37.7 39.5 48.5 31.5 54.6C23.5 60.6 11.8 61.8 0 63L0 0Z" fill="#fbae3c"></path></g></svg>